<?xml version="1.0" encoding="UTF-8" standalone="no"?>
<!-- Created with Inkscape (http://www.inkscape.org/) -->

<svg
   xmlns="http://www.w3.org/2000/svg"
   width="24"
   height="24"
   version="1.1"
   viewBox="0 0 96 96.000001">
  <g transform="translate(67.857146,-78.50504)">
    <g transform="matrix(0,-1,-1,0,373.50506,516.50504)" style="display:inline">
      <g transform="matrix(-0.9996045,0,0,1,575.94296,-611.00001)">
        <g transform="matrix(-1,0,0,1,575.99999,611)" style="display:inline">
          <rect
             style="display:inline;overflow:visible;visibility:visible;fill:none;stroke:none;stroke-width:4;marker:none;enable-background:accumulate"
             width="96.037987"
             height="96"
             x="-438.00244"
             y="345.36221"
             transform="scale(-1,1)" />
          <path d="m 364.0904,368.96573 c -0.0215,-0.0161 -0.0354,-0.0404 -0.0567,-0.0566 -0.0253,-0.0201 -0.057,-0.0305 -0.0821,-0.0508 z" />
          <path d="m 364.07673,417.80167 -0.13873,0.10742 c 0.0251,-0.0203 0.0569,-0.0307 0.0821,-0.0508 0.0214,-0.0162 0.0353,-0.0405 0.0567,-0.0566 z" />
          <path
             d="M 42 6 C 22.14111 6 6 22.142377 6 42 C 6 61.857623 22.14111 77.996094 42 77.996094 C 50.849741 77.996094 58.956757 74.785633 65.230469 69.474609 L 84.876953 89.119141 L 89.121094 84.878906 L 69.474609 65.232422 C 74.78872 58.958425 78 50.851684 78 42 C 78 22.142377 61.85889 6 42 6 z M 42 9.9980469 C 59.69585 9.9980469 73.998047 24.302852 73.998047 42 C 73.998047 59.697148 59.69585 73.998047 42 73.998047 C 24.30415 73.998047 10 59.697148 10 42 C 10 24.302852 24.30415 9.9980469 42 9.9980469 z M 24 39.998047 L 24 43.998047 L 60 43.998047 L 60 39.998047 L 24 39.998047 z "
             transform="matrix(0,-1,-1.0003957,0,438.00245,441.36222)" />
        </g>
      </g>
    </g>
  </g>
</svg>
